<mxfile host="app.diagrams.net" modified="2020-12-09T02:51:34.174Z" agent="5.0 (Macintosh; Intel Mac OS X 10_13_2) AppleWebKit/537.36 (KHTML, like Gecko) Chrome/85.0.4183.102 Safari/537.36" etag="S4cu8yOhsdy0Jtb9Kpja" version="13.8.0" type="github">
  <diagram id="AVdkK1PLs9P7U54mo2xE" name="Page-1">
    <mxGraphModel dx="1426" dy="865" grid="1" gridSize="10" guides="1" tooltips="1" connect="1" arrows="1" fold="1" page="1" pageScale="1" pageWidth="827" pageHeight="1169" math="0" shadow="0">
      <root>
        <mxCell id="0" />
        <mxCell id="1" parent="0" />
        <mxCell id="495p1i4vmTbWJiw6u5Bj-1" value="节点 A" style="ellipse;whiteSpace=wrap;html=1;aspect=fixed;fillColor=#f8cecc;strokeColor=#b85450;" parent="1" vertex="1">
          <mxGeometry x="120" y="200" width="80" height="80" as="geometry" />
        </mxCell>
        <mxCell id="495p1i4vmTbWJiw6u5Bj-2" value="节点 B" style="ellipse;whiteSpace=wrap;html=1;aspect=fixed;fillColor=#d5e8d4;strokeColor=#82b366;" parent="1" vertex="1">
          <mxGeometry x="320" y="80" width="80" height="80" as="geometry" />
        </mxCell>
        <mxCell id="495p1i4vmTbWJiw6u5Bj-3" value="节点 C" style="ellipse;whiteSpace=wrap;html=1;aspect=fixed;fillColor=#d5e8d4;strokeColor=#82b366;" parent="1" vertex="1">
          <mxGeometry x="520" y="200" width="80" height="80" as="geometry" />
        </mxCell>
        <mxCell id="495p1i4vmTbWJiw6u5Bj-4" value="节点 D" style="ellipse;whiteSpace=wrap;html=1;aspect=fixed;fillColor=#d5e8d4;strokeColor=#82b366;" parent="1" vertex="1">
          <mxGeometry x="320" y="310" width="80" height="80" as="geometry" />
        </mxCell>
        <mxCell id="495p1i4vmTbWJiw6u5Bj-5" value="" style="endArrow=classic;html=1;exitX=1;exitY=0;exitDx=0;exitDy=0;entryX=0;entryY=0.5;entryDx=0;entryDy=0;strokeColor=#FF0000;" parent="1" source="495p1i4vmTbWJiw6u5Bj-1" target="495p1i4vmTbWJiw6u5Bj-2" edge="1">
          <mxGeometry width="50" height="50" relative="1" as="geometry">
            <mxPoint x="170" y="140" as="sourcePoint" />
            <mxPoint x="220" y="90" as="targetPoint" />
          </mxGeometry>
        </mxCell>
        <mxCell id="495p1i4vmTbWJiw6u5Bj-6" value="1. meet" style="edgeLabel;html=1;align=center;verticalAlign=middle;resizable=0;points=[];" parent="495p1i4vmTbWJiw6u5Bj-5" vertex="1" connectable="0">
          <mxGeometry x="-0.2967" y="2" relative="1" as="geometry">
            <mxPoint x="15.91" y="-11.58" as="offset" />
          </mxGeometry>
        </mxCell>
        <mxCell id="495p1i4vmTbWJiw6u5Bj-7" value="" style="endArrow=classic;html=1;exitX=1;exitY=0.5;exitDx=0;exitDy=0;entryX=0;entryY=0.5;entryDx=0;entryDy=0;strokeColor=#FF0000;" parent="1" source="495p1i4vmTbWJiw6u5Bj-1" target="495p1i4vmTbWJiw6u5Bj-3" edge="1">
          <mxGeometry width="50" height="50" relative="1" as="geometry">
            <mxPoint x="360" y="320" as="sourcePoint" />
            <mxPoint x="410" y="270" as="targetPoint" />
          </mxGeometry>
        </mxCell>
        <mxCell id="495p1i4vmTbWJiw6u5Bj-8" value="2. meet，通信时携带节点 B 信息" style="edgeLabel;html=1;align=center;verticalAlign=middle;resizable=0;points=[];" parent="495p1i4vmTbWJiw6u5Bj-7" vertex="1" connectable="0">
          <mxGeometry x="0.0857" y="1" relative="1" as="geometry">
            <mxPoint x="-54" y="1" as="offset" />
          </mxGeometry>
        </mxCell>
        <mxCell id="495p1i4vmTbWJiw6u5Bj-12" value="4. meet 通信时携带节点 B，节点 C 信息" style="endArrow=classic;html=1;exitX=1;exitY=1;exitDx=0;exitDy=0;entryX=0;entryY=0.5;entryDx=0;entryDy=0;strokeColor=#FF0000;" parent="1" source="495p1i4vmTbWJiw6u5Bj-1" target="495p1i4vmTbWJiw6u5Bj-4" edge="1">
          <mxGeometry x="-0.3269" y="-5" width="50" height="50" relative="1" as="geometry">
            <mxPoint x="360" y="320" as="sourcePoint" />
            <mxPoint x="410" y="270" as="targetPoint" />
            <mxPoint as="offset" />
          </mxGeometry>
        </mxCell>
        <mxCell id="495p1i4vmTbWJiw6u5Bj-14" value="" style="endArrow=classic;html=1;exitX=0;exitY=0;exitDx=0;exitDy=0;entryX=1;entryY=0.5;entryDx=0;entryDy=0;fillColor=#d5e8d4;gradientColor=#97d077;strokeColor=#007FFF;" parent="1" source="495p1i4vmTbWJiw6u5Bj-3" target="495p1i4vmTbWJiw6u5Bj-2" edge="1">
          <mxGeometry width="50" height="50" relative="1" as="geometry">
            <mxPoint x="360" y="320" as="sourcePoint" />
            <mxPoint x="410" y="270" as="targetPoint" />
          </mxGeometry>
        </mxCell>
        <mxCell id="495p1i4vmTbWJiw6u5Bj-17" value="3. 连接" style="edgeLabel;html=1;align=center;verticalAlign=middle;resizable=0;points=[];" parent="495p1i4vmTbWJiw6u5Bj-14" vertex="1" connectable="0">
          <mxGeometry x="-0.1666" y="-1" relative="1" as="geometry">
            <mxPoint as="offset" />
          </mxGeometry>
        </mxCell>
        <mxCell id="495p1i4vmTbWJiw6u5Bj-15" value="" style="endArrow=classic;html=1;exitX=1;exitY=0.5;exitDx=0;exitDy=0;entryX=0.5;entryY=1;entryDx=0;entryDy=0;strokeColor=#007FFF;" parent="1" source="495p1i4vmTbWJiw6u5Bj-4" target="495p1i4vmTbWJiw6u5Bj-3" edge="1">
          <mxGeometry width="50" height="50" relative="1" as="geometry">
            <mxPoint x="360" y="320" as="sourcePoint" />
            <mxPoint x="410" y="270" as="targetPoint" />
          </mxGeometry>
        </mxCell>
        <mxCell id="495p1i4vmTbWJiw6u5Bj-18" value="5. 连接" style="edgeLabel;html=1;align=center;verticalAlign=middle;resizable=0;points=[];" parent="495p1i4vmTbWJiw6u5Bj-15" vertex="1" connectable="0">
          <mxGeometry x="0.0021" y="2" relative="1" as="geometry">
            <mxPoint as="offset" />
          </mxGeometry>
        </mxCell>
        <mxCell id="495p1i4vmTbWJiw6u5Bj-16" value="" style="endArrow=classic;html=1;entryX=0.5;entryY=1;entryDx=0;entryDy=0;strokeColor=#007FFF;" parent="1" target="495p1i4vmTbWJiw6u5Bj-2" edge="1">
          <mxGeometry width="50" height="50" relative="1" as="geometry">
            <mxPoint x="360" y="310" as="sourcePoint" />
            <mxPoint x="410" y="270" as="targetPoint" />
          </mxGeometry>
        </mxCell>
        <mxCell id="495p1i4vmTbWJiw6u5Bj-19" value="6. 连接" style="edgeLabel;html=1;align=center;verticalAlign=middle;resizable=0;points=[];" parent="495p1i4vmTbWJiw6u5Bj-16" vertex="1" connectable="0">
          <mxGeometry x="0.4667" y="2" relative="1" as="geometry">
            <mxPoint as="offset" />
          </mxGeometry>
        </mxCell>
        <mxCell id="495p1i4vmTbWJiw6u5Bj-21" value="Slave&amp;nbsp;" style="rounded=0;whiteSpace=wrap;html=1;fillColor=#e1d5e7;strokeColor=#9673a6;" parent="1" vertex="1">
          <mxGeometry x="200" y="480" width="80" height="40" as="geometry" />
        </mxCell>
        <mxCell id="495p1i4vmTbWJiw6u5Bj-22" value="Master" style="rounded=0;whiteSpace=wrap;html=1;fillColor=#dae8fc;strokeColor=#6c8ebf;" parent="1" vertex="1">
          <mxGeometry x="520" y="480" width="80" height="40" as="geometry" />
        </mxCell>
        <mxCell id="495p1i4vmTbWJiw6u5Bj-27" value="" style="edgeStyle=orthogonalEdgeStyle;rounded=0;orthogonalLoop=1;jettySize=auto;html=1;strokeColor=#007FFF;entryX=0.5;entryY=0;entryDx=0;entryDy=0;" parent="1" source="495p1i4vmTbWJiw6u5Bj-24" target="495p1i4vmTbWJiw6u5Bj-28" edge="1">
          <mxGeometry relative="1" as="geometry">
            <mxPoint x="240" y="620" as="targetPoint" />
          </mxGeometry>
        </mxCell>
        <mxCell id="495p1i4vmTbWJiw6u5Bj-32" value="是" style="edgeLabel;html=1;align=center;verticalAlign=middle;resizable=0;points=[];" parent="495p1i4vmTbWJiw6u5Bj-27" vertex="1" connectable="0">
          <mxGeometry x="0.2" y="3" relative="1" as="geometry">
            <mxPoint x="-5" y="-2" as="offset" />
          </mxGeometry>
        </mxCell>
        <mxCell id="495p1i4vmTbWJiw6u5Bj-24" value="Master 宕机？" style="strokeWidth=2;html=1;shape=mxgraph.flowchart.decision;whiteSpace=wrap;fillColor=#f8cecc;strokeColor=#b85450;" parent="1" vertex="1">
          <mxGeometry x="190" y="540" width="100" height="60" as="geometry" />
        </mxCell>
        <mxCell id="495p1i4vmTbWJiw6u5Bj-25" value="" style="endArrow=classic;html=1;strokeColor=#007FFF;exitX=0.5;exitY=1;exitDx=0;exitDy=0;" parent="1" source="495p1i4vmTbWJiw6u5Bj-21" target="495p1i4vmTbWJiw6u5Bj-24" edge="1">
          <mxGeometry width="50" height="50" relative="1" as="geometry">
            <mxPoint x="350" y="750" as="sourcePoint" />
            <mxPoint x="400" y="700" as="targetPoint" />
          </mxGeometry>
        </mxCell>
        <mxCell id="495p1i4vmTbWJiw6u5Bj-31" value="" style="edgeStyle=orthogonalEdgeStyle;rounded=0;orthogonalLoop=1;jettySize=auto;html=1;strokeColor=#007FFF;" parent="1" source="495p1i4vmTbWJiw6u5Bj-28" target="495p1i4vmTbWJiw6u5Bj-30" edge="1">
          <mxGeometry relative="1" as="geometry" />
        </mxCell>
        <mxCell id="495p1i4vmTbWJiw6u5Bj-28" value="计算当前节点发起选举的时间" style="rounded=0;whiteSpace=wrap;html=1;fillColor=#f5f5f5;strokeColor=#666666;fontColor=#333333;" parent="1" vertex="1">
          <mxGeometry x="190" y="630" width="100" height="30" as="geometry" />
        </mxCell>
        <mxCell id="495p1i4vmTbWJiw6u5Bj-34" value="" style="edgeStyle=orthogonalEdgeStyle;rounded=0;orthogonalLoop=1;jettySize=auto;html=1;strokeColor=#007FFF;" parent="1" source="495p1i4vmTbWJiw6u5Bj-30" target="495p1i4vmTbWJiw6u5Bj-33" edge="1">
          <mxGeometry relative="1" as="geometry" />
        </mxCell>
        <mxCell id="495p1i4vmTbWJiw6u5Bj-35" value="是" style="edgeLabel;html=1;align=center;verticalAlign=middle;resizable=0;points=[];" parent="495p1i4vmTbWJiw6u5Bj-34" vertex="1" connectable="0">
          <mxGeometry x="-0.3032" relative="1" as="geometry">
            <mxPoint as="offset" />
          </mxGeometry>
        </mxCell>
        <mxCell id="495p1i4vmTbWJiw6u5Bj-30" value="选举时间到达？" style="rhombus;whiteSpace=wrap;html=1;rounded=0;fillColor=#f8cecc;strokeColor=#b85450;" parent="1" vertex="1">
          <mxGeometry x="190" y="690" width="100" height="55" as="geometry" />
        </mxCell>
        <mxCell id="495p1i4vmTbWJiw6u5Bj-37" value="" style="edgeStyle=orthogonalEdgeStyle;rounded=0;orthogonalLoop=1;jettySize=auto;html=1;strokeColor=#007FFF;" parent="1" source="495p1i4vmTbWJiw6u5Bj-33" target="495p1i4vmTbWJiw6u5Bj-36" edge="1">
          <mxGeometry relative="1" as="geometry" />
        </mxCell>
        <mxCell id="495p1i4vmTbWJiw6u5Bj-54" value="" style="edgeStyle=orthogonalEdgeStyle;rounded=0;orthogonalLoop=1;jettySize=auto;html=1;strokeColor=#007FFF;dashed=1;" parent="1" source="495p1i4vmTbWJiw6u5Bj-33" target="495p1i4vmTbWJiw6u5Bj-53" edge="1">
          <mxGeometry relative="1" as="geometry">
            <Array as="points">
              <mxPoint x="410" y="805" />
              <mxPoint x="410" y="595" />
            </Array>
          </mxGeometry>
        </mxCell>
        <mxCell id="495p1i4vmTbWJiw6u5Bj-33" value="currentEpoch++&lt;br&gt;发送&amp;nbsp;&lt;span style=&quot;color: rgb(255 , 0 , 0) ; font-size: 13px ; background-color: rgba(255 , 255 , 255 , 0.01)&quot;&gt;FAILOVER_AUTH_REQUEST广播&lt;/span&gt;" style="whiteSpace=wrap;html=1;rounded=0;align=center;fillColor=#d5e8d4;strokeColor=#82b366;" parent="1" vertex="1">
          <mxGeometry x="117.5" y="780" width="245" height="50" as="geometry" />
        </mxCell>
        <mxCell id="495p1i4vmTbWJiw6u5Bj-39" value="" style="edgeStyle=orthogonalEdgeStyle;rounded=0;orthogonalLoop=1;jettySize=auto;html=1;strokeColor=#007FFF;" parent="1" source="495p1i4vmTbWJiw6u5Bj-36" target="495p1i4vmTbWJiw6u5Bj-38" edge="1">
          <mxGeometry relative="1" as="geometry" />
        </mxCell>
        <mxCell id="495p1i4vmTbWJiw6u5Bj-36" value="统计票数" style="whiteSpace=wrap;html=1;rounded=0;align=center;fillColor=#f5f5f5;strokeColor=#666666;fontColor=#333333;" parent="1" vertex="1">
          <mxGeometry x="200" y="860" width="80" height="40" as="geometry" />
        </mxCell>
        <mxCell id="495p1i4vmTbWJiw6u5Bj-41" value="" style="edgeStyle=orthogonalEdgeStyle;rounded=0;orthogonalLoop=1;jettySize=auto;html=1;strokeColor=#007FFF;" parent="1" source="495p1i4vmTbWJiw6u5Bj-38" target="495p1i4vmTbWJiw6u5Bj-40" edge="1">
          <mxGeometry relative="1" as="geometry" />
        </mxCell>
        <mxCell id="495p1i4vmTbWJiw6u5Bj-42" value="是" style="edgeLabel;html=1;align=center;verticalAlign=middle;resizable=0;points=[];" parent="495p1i4vmTbWJiw6u5Bj-41" vertex="1" connectable="0">
          <mxGeometry x="-0.2706" y="-1" relative="1" as="geometry">
            <mxPoint as="offset" />
          </mxGeometry>
        </mxCell>
        <mxCell id="495p1i4vmTbWJiw6u5Bj-38" value="得票超过半数？" style="rhombus;whiteSpace=wrap;html=1;rounded=0;fillColor=#f8cecc;strokeColor=#b85450;" parent="1" vertex="1">
          <mxGeometry x="190" y="930" width="100" height="70" as="geometry" />
        </mxCell>
        <mxCell id="495p1i4vmTbWJiw6u5Bj-44" value="" style="edgeStyle=orthogonalEdgeStyle;rounded=0;orthogonalLoop=1;jettySize=auto;html=1;strokeColor=#007FFF;" parent="1" source="495p1i4vmTbWJiw6u5Bj-40" target="495p1i4vmTbWJiw6u5Bj-43" edge="1">
          <mxGeometry relative="1" as="geometry" />
        </mxCell>
        <mxCell id="495p1i4vmTbWJiw6u5Bj-40" value="Slave 节点成为新的 Master 节点" style="whiteSpace=wrap;html=1;rounded=0;fillColor=#fff2cc;strokeColor=#d6b656;" parent="1" vertex="1">
          <mxGeometry x="187.5" y="1040" width="105" height="40" as="geometry" />
        </mxCell>
        <mxCell id="495p1i4vmTbWJiw6u5Bj-92" value="" style="edgeStyle=orthogonalEdgeStyle;rounded=0;orthogonalLoop=1;jettySize=auto;html=1;strokeColor=#007FFF;entryX=1;entryY=1;entryDx=0;entryDy=0;" parent="1" source="495p1i4vmTbWJiw6u5Bj-43" target="495p1i4vmTbWJiw6u5Bj-45" edge="1">
          <mxGeometry relative="1" as="geometry">
            <mxPoint x="107.5" y="1140" as="targetPoint" />
          </mxGeometry>
        </mxCell>
        <mxCell id="495p1i4vmTbWJiw6u5Bj-43" value="广播主从切换完成" style="whiteSpace=wrap;html=1;rounded=0;fillColor=#ffe6cc;strokeColor=#d79b00;" parent="1" vertex="1">
          <mxGeometry x="187.5" y="1120" width="105" height="40" as="geometry" />
        </mxCell>
        <mxCell id="495p1i4vmTbWJiw6u5Bj-45" value="&lt;br&gt;&lt;br&gt;&lt;br&gt;&lt;br&gt;结束" style="ellipse;html=1;shape=endState;fillColor=#000000;strokeColor=#ff0000;align=center;" parent="1" vertex="1">
          <mxGeometry x="70" y="1000" width="30" height="30" as="geometry" />
        </mxCell>
        <mxCell id="495p1i4vmTbWJiw6u5Bj-47" value="" style="endArrow=classic;html=1;strokeColor=#007FFF;exitX=0;exitY=0.5;exitDx=0;exitDy=0;entryX=1;entryY=0;entryDx=0;entryDy=0;" parent="1" source="495p1i4vmTbWJiw6u5Bj-38" target="495p1i4vmTbWJiw6u5Bj-45" edge="1">
          <mxGeometry width="50" height="50" relative="1" as="geometry">
            <mxPoint x="240" y="950" as="sourcePoint" />
            <mxPoint x="170" y="860" as="targetPoint" />
            <Array as="points" />
          </mxGeometry>
        </mxCell>
        <mxCell id="495p1i4vmTbWJiw6u5Bj-48" value="否，等待下次触发" style="edgeLabel;html=1;align=center;verticalAlign=middle;resizable=0;points=[];" parent="495p1i4vmTbWJiw6u5Bj-47" vertex="1" connectable="0">
          <mxGeometry x="-0.0316" relative="1" as="geometry">
            <mxPoint as="offset" />
          </mxGeometry>
        </mxCell>
        <mxCell id="495p1i4vmTbWJiw6u5Bj-49" value="" style="endArrow=classic;html=1;strokeColor=#007FFF;exitX=0;exitY=0.5;exitDx=0;exitDy=0;entryX=0.767;entryY=-0.1;entryDx=0;entryDy=0;entryPerimeter=0;" parent="1" source="495p1i4vmTbWJiw6u5Bj-30" target="495p1i4vmTbWJiw6u5Bj-45" edge="1">
          <mxGeometry width="50" height="50" relative="1" as="geometry">
            <mxPoint x="60" y="730" as="sourcePoint" />
            <mxPoint x="110" y="680" as="targetPoint" />
            <Array as="points">
              <mxPoint x="93" y="718" />
            </Array>
          </mxGeometry>
        </mxCell>
        <mxCell id="495p1i4vmTbWJiw6u5Bj-50" value="否，等待下次触发" style="edgeLabel;html=1;align=center;verticalAlign=middle;resizable=0;points=[];" parent="495p1i4vmTbWJiw6u5Bj-49" vertex="1" connectable="0">
          <mxGeometry x="-0.606" y="1" relative="1" as="geometry">
            <mxPoint x="23.99" y="-1.38" as="offset" />
          </mxGeometry>
        </mxCell>
        <mxCell id="495p1i4vmTbWJiw6u5Bj-51" value="" style="endArrow=classic;html=1;strokeColor=#007FFF;exitX=0;exitY=0.5;exitDx=0;exitDy=0;exitPerimeter=0;entryX=0;entryY=0;entryDx=0;entryDy=0;" parent="1" source="495p1i4vmTbWJiw6u5Bj-24" target="495p1i4vmTbWJiw6u5Bj-45" edge="1">
          <mxGeometry width="50" height="50" relative="1" as="geometry">
            <mxPoint x="210" y="820" as="sourcePoint" />
            <mxPoint x="260" y="770" as="targetPoint" />
            <Array as="points">
              <mxPoint x="74" y="570" />
            </Array>
          </mxGeometry>
        </mxCell>
        <mxCell id="495p1i4vmTbWJiw6u5Bj-52" value="否" style="edgeLabel;html=1;align=center;verticalAlign=middle;resizable=0;points=[];" parent="495p1i4vmTbWJiw6u5Bj-51" vertex="1" connectable="0">
          <mxGeometry x="-0.7929" relative="1" as="geometry">
            <mxPoint as="offset" />
          </mxGeometry>
        </mxCell>
        <mxCell id="495p1i4vmTbWJiw6u5Bj-57" value="" style="edgeStyle=orthogonalEdgeStyle;rounded=0;orthogonalLoop=1;jettySize=auto;html=1;strokeColor=#007FFF;" parent="1" source="495p1i4vmTbWJiw6u5Bj-53" target="495p1i4vmTbWJiw6u5Bj-56" edge="1">
          <mxGeometry relative="1" as="geometry" />
        </mxCell>
        <mxCell id="495p1i4vmTbWJiw6u5Bj-53" value="收到&amp;nbsp;&lt;span style=&quot;color: rgb(255 , 0 , 0) ; font-size: 13px ; background-color: rgba(255 , 255 , 255 , 0.01)&quot;&gt;FAILOVER_AUTH_REQUEST广播&lt;/span&gt;" style="whiteSpace=wrap;html=1;rounded=0;align=center;fillColor=#d5e8d4;strokeColor=#82b366;" parent="1" vertex="1">
          <mxGeometry x="442.5" y="570" width="247.5" height="50" as="geometry" />
        </mxCell>
        <mxCell id="495p1i4vmTbWJiw6u5Bj-55" value="" style="endArrow=classic;html=1;strokeColor=#007FFF;exitX=0.5;exitY=1;exitDx=0;exitDy=0;entryX=0.471;entryY=-0.06;entryDx=0;entryDy=0;entryPerimeter=0;" parent="1" source="495p1i4vmTbWJiw6u5Bj-22" target="495p1i4vmTbWJiw6u5Bj-53" edge="1">
          <mxGeometry width="50" height="50" relative="1" as="geometry">
            <mxPoint x="350" y="770" as="sourcePoint" />
            <mxPoint x="400" y="720" as="targetPoint" />
          </mxGeometry>
        </mxCell>
        <mxCell id="495p1i4vmTbWJiw6u5Bj-59" value="" style="edgeStyle=orthogonalEdgeStyle;rounded=0;orthogonalLoop=1;jettySize=auto;html=1;strokeColor=#007FFF;" parent="1" source="495p1i4vmTbWJiw6u5Bj-56" target="495p1i4vmTbWJiw6u5Bj-58" edge="1">
          <mxGeometry relative="1" as="geometry" />
        </mxCell>
        <mxCell id="495p1i4vmTbWJiw6u5Bj-60" value="是" style="edgeLabel;html=1;align=center;verticalAlign=middle;resizable=0;points=[];" parent="495p1i4vmTbWJiw6u5Bj-59" vertex="1" connectable="0">
          <mxGeometry x="0.0024" y="-7" relative="1" as="geometry">
            <mxPoint x="-6.9399999999999995" y="-7" as="offset" />
          </mxGeometry>
        </mxCell>
        <mxCell id="495p1i4vmTbWJiw6u5Bj-74" value="" style="edgeStyle=orthogonalEdgeStyle;rounded=0;orthogonalLoop=1;jettySize=auto;html=1;strokeColor=#007FFF;entryX=0.5;entryY=0;entryDx=0;entryDy=0;" parent="1" source="495p1i4vmTbWJiw6u5Bj-56" target="495p1i4vmTbWJiw6u5Bj-70" edge="1">
          <mxGeometry relative="1" as="geometry">
            <mxPoint x="763.1199999999999" y="682.5" as="targetPoint" />
          </mxGeometry>
        </mxCell>
        <mxCell id="495p1i4vmTbWJiw6u5Bj-85" value="否" style="edgeLabel;html=1;align=center;verticalAlign=middle;resizable=0;points=[];" parent="495p1i4vmTbWJiw6u5Bj-74" vertex="1" connectable="0">
          <mxGeometry x="-0.8468" y="3" relative="1" as="geometry">
            <mxPoint y="1" as="offset" />
          </mxGeometry>
        </mxCell>
        <mxCell id="495p1i4vmTbWJiw6u5Bj-56" value="&amp;nbsp;主节点 currentEpoch 小于 requestCurrentEpoch" style="rhombus;whiteSpace=wrap;html=1;rounded=0;fillColor=#f8cecc;strokeColor=#b85450;" parent="1" vertex="1">
          <mxGeometry x="475.94" y="650" width="180.63" height="75" as="geometry" />
        </mxCell>
        <mxCell id="495p1i4vmTbWJiw6u5Bj-62" value="" style="edgeStyle=orthogonalEdgeStyle;rounded=0;orthogonalLoop=1;jettySize=auto;html=1;strokeColor=#007FFF;entryX=0.5;entryY=0;entryDx=0;entryDy=0;" parent="1" source="495p1i4vmTbWJiw6u5Bj-58" target="495p1i4vmTbWJiw6u5Bj-64" edge="1">
          <mxGeometry relative="1" as="geometry">
            <mxPoint x="566.2550000000001" y="850" as="targetPoint" />
          </mxGeometry>
        </mxCell>
        <mxCell id="495p1i4vmTbWJiw6u5Bj-63" value="是" style="edgeLabel;html=1;align=center;verticalAlign=middle;resizable=0;points=[];" parent="495p1i4vmTbWJiw6u5Bj-62" vertex="1" connectable="0">
          <mxGeometry x="-0.425" y="1" relative="1" as="geometry">
            <mxPoint as="offset" />
          </mxGeometry>
        </mxCell>
        <mxCell id="495p1i4vmTbWJiw6u5Bj-76" value="" style="edgeStyle=orthogonalEdgeStyle;rounded=0;orthogonalLoop=1;jettySize=auto;html=1;strokeColor=#007FFF;entryX=0.5;entryY=0;entryDx=0;entryDy=0;" parent="1" source="495p1i4vmTbWJiw6u5Bj-58" target="495p1i4vmTbWJiw6u5Bj-70" edge="1">
          <mxGeometry relative="1" as="geometry">
            <mxPoint x="736.885" y="780" as="targetPoint" />
            <Array as="points">
              <mxPoint x="765" y="780" />
            </Array>
          </mxGeometry>
        </mxCell>
        <mxCell id="495p1i4vmTbWJiw6u5Bj-58" value="尚未在该 Epoch 投过票？" style="rhombus;whiteSpace=wrap;html=1;rounded=0;fillColor=#f8cecc;strokeColor=#b85450;" parent="1" vertex="1">
          <mxGeometry x="490.94" y="750" width="150.63" height="60" as="geometry" />
        </mxCell>
        <mxCell id="495p1i4vmTbWJiw6u5Bj-68" value="" style="edgeStyle=orthogonalEdgeStyle;rounded=0;orthogonalLoop=1;jettySize=auto;html=1;strokeColor=#007FFF;" parent="1" source="495p1i4vmTbWJiw6u5Bj-64" target="495p1i4vmTbWJiw6u5Bj-67" edge="1">
          <mxGeometry relative="1" as="geometry" />
        </mxCell>
        <mxCell id="495p1i4vmTbWJiw6u5Bj-69" value="是" style="edgeLabel;html=1;align=center;verticalAlign=middle;resizable=0;points=[];" parent="495p1i4vmTbWJiw6u5Bj-68" vertex="1" connectable="0">
          <mxGeometry x="-0.2998" y="2" relative="1" as="geometry">
            <mxPoint as="offset" />
          </mxGeometry>
        </mxCell>
        <mxCell id="495p1i4vmTbWJiw6u5Bj-84" value="" style="edgeStyle=orthogonalEdgeStyle;rounded=0;orthogonalLoop=1;jettySize=auto;html=1;strokeColor=#007FFF;entryX=0.5;entryY=0;entryDx=0;entryDy=0;" parent="1" source="495p1i4vmTbWJiw6u5Bj-64" target="495p1i4vmTbWJiw6u5Bj-70" edge="1">
          <mxGeometry relative="1" as="geometry">
            <mxPoint x="755.3199999999999" y="880" as="targetPoint" />
          </mxGeometry>
        </mxCell>
        <mxCell id="495p1i4vmTbWJiw6u5Bj-88" value="否" style="edgeLabel;html=1;align=center;verticalAlign=middle;resizable=0;points=[];" parent="495p1i4vmTbWJiw6u5Bj-84" vertex="1" connectable="0">
          <mxGeometry x="-0.3662" y="1" relative="1" as="geometry">
            <mxPoint as="offset" />
          </mxGeometry>
        </mxCell>
        <mxCell id="495p1i4vmTbWJiw6u5Bj-64" value="该 Slave 节点的主节点宕机？" style="rhombus;whiteSpace=wrap;html=1;rounded=0;fillColor=#f8cecc;strokeColor=#b85450;" parent="1" vertex="1">
          <mxGeometry x="481.73" y="850" width="169.06" height="60" as="geometry" />
        </mxCell>
        <mxCell id="495p1i4vmTbWJiw6u5Bj-90" value="" style="edgeStyle=orthogonalEdgeStyle;rounded=0;orthogonalLoop=1;jettySize=auto;html=1;strokeColor=#007FFF;entryX=0;entryY=0.5;entryDx=0;entryDy=0;exitX=0.5;exitY=1;exitDx=0;exitDy=0;" parent="1" source="495p1i4vmTbWJiw6u5Bj-67" target="495p1i4vmTbWJiw6u5Bj-70" edge="1">
          <mxGeometry relative="1" as="geometry">
            <mxPoint x="566.2599999999998" y="1081" as="targetPoint" />
          </mxGeometry>
        </mxCell>
        <mxCell id="495p1i4vmTbWJiw6u5Bj-67" value="回复&amp;nbsp;&lt;span style=&quot;color: rgb(255 , 0 , 0) ; font-size: 13px ; background-color: rgba(255 , 255 , 255 , 0.01)&quot;&gt;FAILOVER_AUTH_ACK 消息&lt;/span&gt;" style="whiteSpace=wrap;html=1;rounded=0;fillColor=#d5e8d4;strokeColor=#82b366;" parent="1" vertex="1">
          <mxGeometry x="459.39" y="950" width="213.74" height="51" as="geometry" />
        </mxCell>
        <mxCell id="495p1i4vmTbWJiw6u5Bj-70" value="&lt;br&gt;&lt;br&gt;&lt;br&gt;&lt;br&gt;结束" style="ellipse;html=1;shape=endState;fillColor=#000000;strokeColor=#ff0000;align=center;" parent="1" vertex="1">
          <mxGeometry x="750" y="1010" width="30" height="30" as="geometry" />
        </mxCell>
        <mxCell id="495p1i4vmTbWJiw6u5Bj-71" value="" style="endArrow=classic;html=1;strokeColor=#007FFF;entryX=1;entryY=0.5;entryDx=0;entryDy=0;exitX=0;exitY=0.5;exitDx=0;exitDy=0;dashed=1;" parent="1" source="495p1i4vmTbWJiw6u5Bj-67" target="495p1i4vmTbWJiw6u5Bj-36" edge="1">
          <mxGeometry relative="1" as="geometry">
            <mxPoint x="320" y="930" as="sourcePoint" />
            <mxPoint x="420" y="930" as="targetPoint" />
          </mxGeometry>
        </mxCell>
        <mxCell id="495p1i4vmTbWJiw6u5Bj-86" value="否" style="text;html=1;align=center;verticalAlign=middle;resizable=0;points=[];autosize=1;" parent="1" vertex="1">
          <mxGeometry x="695" y="770" width="30" height="20" as="geometry" />
        </mxCell>
      </root>
    </mxGraphModel>
  </diagram>
</mxfile>
